<?xml version="1.0" standalone="no"?>
<!DOCTYPE svg PUBLIC "-//W3C//DTD SVG 20010904//EN"
 "http://www.w3.org/TR/2001/REC-SVG-20010904/DTD/svg10.dtd">
<svg version="1.0" xmlns="http://www.w3.org/2000/svg"
 width="464.000000pt" height="470.000000pt" viewBox="0 0 464.000000 470.000000"
 preserveAspectRatio="xMidYMid meet">
<metadata>
Created by potrace 1.16, written by Peter Selinger 2001-2019
</metadata>
<g transform="translate(0.000000,470.000000) scale(0.100000,-0.100000)"
fill="#000000" stroke="none">
<path d="M2225 4124 c-16 -2 -74 -9 -127 -15 -54 -6 -98 -14 -98 -18 0 -4 -29
-13 -65 -20 -36 -7 -65 -17 -65 -21 0 -4 -20 -13 -45 -20 -25 -7 -45 -16 -45
-20 0 -4 -18 -13 -40 -20 -22 -7 -40 -16 -40 -20 0 -4 -15 -14 -32 -21 -18 -7
-37 -17 -43 -21 -175 -137 -248 -204 -304 -278 -14 -19 -28 -37 -31 -40 -3 -3
-19 -25 -35 -50 -17 -25 -36 -51 -42 -58 -7 -7 -16 -24 -19 -38 -3 -13 -9 -24
-14 -24 -4 0 -12 -18 -19 -40 -6 -22 -15 -40 -20 -40 -4 0 -14 -25 -21 -55 -7
-30 -17 -55 -21 -55 -4 0 -13 -34 -20 -75 -7 -41 -16 -75 -20 -75 -4 0 -11
-41 -15 -91 -4 -50 -12 -95 -18 -100 -6 -5 -36 -29 -66 -53 -108 -85 -263
-255 -283 -308 -3 -10 -11 -18 -16 -18 -5 0 -12 -11 -15 -25 -3 -13 -19 -44
-35 -67 -16 -24 -35 -62 -42 -85 -6 -24 -15 -43 -19 -43 -4 0 -13 -27 -20 -60
-7 -33 -16 -60 -20 -60 -12 0 -32 -152 -37 -290 -6 -133 17 -380 37 -405 4 -5
11 -26 15 -45 10 -49 61 -161 114 -250 11 -19 28 -48 37 -65 9 -16 23 -34 30
-38 8 -4 14 -12 14 -18 0 -18 179 -204 234 -244 26 -19 42 -31 83 -65 10 -9
33 -22 51 -29 17 -7 32 -17 32 -21 0 -4 18 -13 40 -20 22 -7 40 -16 40 -20 0
-4 20 -13 45 -20 25 -7 45 -16 45 -20 0 -4 26 -13 58 -20 31 -7 59 -16 62 -20
10 -15 223 -40 339 -40 116 0 331 25 341 39 3 4 31 13 63 21 31 7 57 16 57 20
0 3 23 12 50 19 28 7 50 17 50 22 0 5 7 9 15 9 8 0 15 -4 15 -9 0 -4 20 -14
45 -21 25 -7 45 -16 45 -20 0 -4 26 -13 58 -20 31 -7 59 -16 62 -20 10 -14
229 -40 344 -40 113 0 321 24 341 40 6 4 36 13 68 20 31 7 57 16 57 20 0 4 20
13 45 20 25 7 45 16 45 21 0 4 18 14 40 20 21 7 37 15 35 19 -3 5 5 10 18 14
25 6 28 8 147 102 96 76 170 153 244 254 68 94 95 136 102 166 3 13 10 24 14
24 4 0 14 20 21 45 7 25 16 45 20 45 4 0 13 24 19 53 7 28 16 54 21 57 4 3 15
58 24 123 14 91 16 159 12 295 -5 166 -22 302 -37 302 -4 0 -13 27 -20 60 -7
33 -16 60 -20 60 -4 0 -13 20 -20 45 -7 25 -16 45 -20 45 -5 0 -13 14 -19 30
-11 32 -74 132 -103 164 -10 11 -18 23 -18 28 0 4 -16 23 -35 42 -19 20 -35
38 -35 40 0 14 -193 179 -219 187 -7 3 -16 47 -22 109 -6 58 -15 110 -19 115
-4 6 -14 38 -20 73 -7 34 -16 62 -20 62 -4 0 -10 14 -14 30 -3 17 -17 55 -31
85 -14 31 -25 58 -25 61 0 3 -5 10 -10 17 -21 25 -60 88 -60 97 0 6 -4 10 -10
10 -5 0 -9 4 -7 8 1 5 -11 25 -28 46 -49 62 -244 254 -265 261 -11 4 -20 10
-20 14 0 5 -13 14 -30 21 -16 7 -30 16 -30 21 0 4 -16 13 -35 20 -19 7 -35 16
-35 20 0 4 -16 13 -35 19 -19 6 -35 15 -35 19 0 4 -22 13 -50 20 -27 7 -50 16
-50 20 0 4 -26 14 -57 21 -32 7 -62 16 -68 20 -26 19 -342 45 -420 34z m265
-303 c3 -4 39 -12 80 -19 41 -7 77 -16 80 -21 3 -4 26 -13 53 -21 26 -7 47
-16 47 -19 0 -4 16 -13 35 -20 19 -7 35 -16 35 -21 0 -4 10 -10 23 -14 13 -3
33 -13 45 -23 12 -10 36 -29 54 -43 49 -39 125 -119 176 -184 50 -65 132 -218
132 -247 0 -11 4 -19 9 -19 4 0 14 -28 21 -62 6 -35 17 -74 23 -87 8 -15 12
-82 12 -181 0 -99 -4 -166 -12 -181 -6 -13 -17 -52 -23 -86 -7 -35 -17 -63
-21 -63 -5 0 -9 -6 -9 -14 0 -21 -62 -156 -72 -156 -4 0 -8 -6 -8 -14 0 -7 -7
-19 -15 -26 -8 -7 -13 -16 -10 -20 3 -4 -2 -10 -10 -14 -8 -3 -15 -11 -15 -18
0 -8 -8 -20 -17 -29 -10 -8 -36 -36 -57 -62 -43 -51 -48 -53 -68 -34 -7 7 -28
19 -45 26 -18 7 -33 17 -33 21 0 4 -10 10 -21 13 -15 4 -56 -14 -134 -59 -62
-35 -117 -64 -124 -64 -6 0 -11 -4 -11 -10 0 -5 -7 -10 -15 -10 -29 0 -17 -37
14 -43 16 -3 35 -12 42 -19 8 -8 29 -20 47 -27 17 -7 32 -16 32 -20 0 -4 16
-13 35 -20 19 -7 35 -17 35 -22 0 -5 6 -9 13 -9 6 -1 37 -16 67 -35 30 -19 65
-39 78 -45 13 -5 30 -17 39 -25 16 -17 50 -12 68 10 5 6 42 37 81 68 39 31 91
79 116 106 77 83 188 238 188 261 0 5 4 10 8 10 5 0 15 18 22 40 7 22 16 40
20 40 4 0 13 25 20 55 7 30 16 55 21 55 4 0 13 29 20 65 8 40 17 65 24 63 17
-4 135 -140 135 -155 0 -7 5 -13 11 -13 5 0 8 -4 5 -9 -3 -5 1 -14 9 -21 8 -7
15 -19 15 -26 0 -8 5 -14 10 -14 6 0 10 -4 10 -9 0 -5 8 -26 17 -47 9 -22 17
-41 18 -44 1 -3 7 -18 13 -33 7 -16 12 -37 12 -48 0 -10 4 -19 9 -19 18 0 33
-172 28 -319 -6 -187 -33 -282 -131 -456 -48 -85 -43 -79 -154 -190 -111 -110
-139 -134 -169 -141 -13 -4 -23 -10 -23 -14 0 -5 -16 -14 -35 -21 -19 -7 -35
-16 -35 -20 0 -3 -20 -12 -45 -19 -25 -7 -45 -16 -45 -21 0 -4 -33 -13 -74
-20 -41 -7 -73 -16 -70 -20 13 -21 -390 -22 -405 -1 -3 4 -35 14 -71 21 -36 7
-67 16 -70 20 -3 4 -24 13 -47 19 -24 7 -43 16 -43 21 0 4 -18 13 -40 20 -22
6 -40 16 -40 21 0 5 -8 11 -19 15 -10 3 -28 13 -40 23 -12 9 -33 26 -47 37
-81 61 -214 214 -214 245 0 5 -4 10 -9 10 -8 0 -38 57 -84 160 -8 19 -18 52
-22 73 -4 20 -11 40 -16 43 -20 12 -7 33 26 45 19 7 35 16 35 20 0 4 16 13 35
20 l35 13 0 168 c0 139 -2 168 -14 168 -8 0 -21 -6 -28 -13 -7 -7 -28 -19 -45
-26 -18 -7 -33 -16 -33 -20 0 -4 -16 -13 -35 -20 -19 -7 -35 -16 -35 -21 0 -4
-10 -10 -23 -14 -13 -3 -34 -15 -47 -26 -13 -11 -29 -20 -36 -20 -7 0 -19 -6
-26 -13 -7 -7 -24 -18 -38 -25 -98 -50 -100 -52 -100 -76 0 -14 5 -28 10 -31
6 -3 10 -23 10 -43 1 -79 45 -258 80 -327 11 -21 20 -45 20 -52 0 -7 4 -13 8
-13 5 0 15 -18 22 -40 7 -22 17 -40 22 -40 4 0 8 -5 8 -12 0 -6 11 -26 25 -44
14 -18 25 -37 25 -42 0 -6 7 -12 15 -16 8 -3 15 -11 15 -17 0 -7 9 -21 20 -33
100 -105 139 -150 134 -157 -3 -5 -18 -9 -34 -9 -15 0 -30 -6 -33 -12 -5 -17
-384 -19 -395 -3 -4 6 -36 17 -72 24 -36 7 -67 16 -70 20 -3 4 -24 13 -47 19
-24 7 -43 16 -43 21 0 4 -18 13 -40 20 -22 6 -40 16 -40 21 0 5 -8 11 -19 15
-10 3 -28 13 -40 23 -12 9 -33 26 -47 37 -81 61 -214 214 -214 245 0 5 -4 10
-9 10 -10 0 -79 138 -85 170 -1 3 -4 10 -7 15 -4 6 -10 26 -14 45 -4 19 -11
40 -15 45 -32 40 -37 382 -7 475 8 25 18 58 21 73 4 15 20 55 35 87 16 33 26
60 23 60 -4 0 -2 4 3 8 6 4 16 18 23 32 18 38 46 84 62 104 28 34 186 191 213
211 15 11 33 25 40 30 6 6 27 17 45 24 17 7 32 17 32 21 0 4 20 13 45 20 25 7
45 16 45 20 0 5 24 14 53 20 28 7 54 16 57 21 9 13 158 29 275 29 122 0 265
-17 265 -31 0 -5 7 -9 15 -9 12 0 15 -16 15 -80 0 -76 1 -81 25 -92 14 -6 25
-14 25 -18 0 -3 16 -12 35 -19 19 -7 35 -16 35 -21 0 -4 11 -11 24 -14 14 -3
31 -12 38 -19 11 -10 41 -27 101 -55 4 -2 7 115 7 261 l0 264 -40 12 c-22 6
-40 15 -40 20 0 4 -25 14 -55 21 -30 7 -55 16 -55 20 0 4 -35 13 -77 20 -43 7
-81 18 -85 24 -10 15 -466 15 -476 0 -7 -11 -141 -38 -149 -30 -7 7 9 76 18
76 5 0 9 7 9 15 0 8 11 39 25 69 14 30 25 57 25 61 0 8 44 69 53 73 4 2 5 8 1
13 -3 5 0 9 5 9 6 0 11 7 11 15 0 8 9 20 20 27 11 7 20 17 20 22 0 11 132 146
143 146 4 0 16 8 26 18 36 32 50 42 76 54 14 6 25 15 25 19 0 4 17 13 37 20
21 6 43 18 50 24 6 7 29 16 50 20 21 4 41 11 44 17 3 5 37 14 75 21 38 6 71
15 74 19 13 17 328 16 340 -1z"/>
</g>
</svg>
