<svg id="visual" viewBox="0 0 1900 300" width="1900" height="300" xmlns="http://www.w3.org/2000/svg" xmlns:xlink="http://www.w3.org/1999/xlink" version="1.1"><g stroke-width="24" stroke-linejoin="bevel"><path d="M943.1 128L1035.9 162L1022.9 114Z" fill="#5b4a66" stroke="#f5f5f5"></path><path d="M1172.4 122L1043.6 53L1022.9 114Z" fill="#e79d9e" stroke="#f5f5f5"></path><path d="M1022.9 114L1043.6 53L943.1 128Z" fill="#b1788d" stroke="#f5f5f5"></path><path d="M851.1 75L854.4 94L943.1 128Z" fill="#413c54" stroke="#f5f5f5"></path><path d="M1043.6 53L1010.9 0L943.1 128Z" fill="#00101c" stroke="#f5f5f5"></path><path d="M1010.9 0L851.1 75L943.1 128Z" fill="#b1788d" stroke="#f5f5f5"></path><path d="M1035.9 162L1172.4 122L1022.9 114Z" fill="#413c54" stroke="#f5f5f5"></path><path d="M1043.6 53L1128.6 0L1010.9 0Z" fill="#5b4a66" stroke="#f5f5f5"></path><path d="M857.1 300L1050.6 300L943.1 128Z" fill="#5b4a66" stroke="#f5f5f5"></path><path d="M943.1 128L1050.6 300L1035.9 162Z" fill="#cd8a96" stroke="#f5f5f5"></path><path d="M1035.9 162L1072.9 300L1139.6 187Z" fill="#e79d9e" stroke="#f5f5f5"></path><path d="M1050.6 300L1072.9 300L1035.9 162Z" fill="#151f2f" stroke="#f5f5f5"></path><path d="M1139.6 187L1172.4 122L1035.9 162Z" fill="#ffb2a4" stroke="#f5f5f5"></path><path d="M1072.9 300L1164.4 217L1139.6 187Z" fill="#ffb2a4" stroke="#f5f5f5"></path><path d="M1139.6 187L1164.4 217L1172.4 122Z" fill="#5b4a66" stroke="#f5f5f5"></path><path d="M849.4 300L857.1 300L761.4 184Z" fill="#151f2f" stroke="#f5f5f5"></path><path d="M854.4 94L857.1 300L943.1 128Z" fill="#413c54" stroke="#f5f5f5"></path><path d="M761.4 184L857.1 300L854.4 94Z" fill="#946882" stroke="#f5f5f5"></path><path d="M1172.4 122L1128.6 0L1043.6 53Z" fill="#cd8a96" stroke="#f5f5f5"></path><path d="M1010.9 0L827.1 0L851.1 75Z" fill="#e79d9e" stroke="#f5f5f5"></path><path d="M735.6 34L761.4 184L854.4 94Z" fill="#00101c" stroke="#f5f5f5"></path><path d="M735.6 34L854.4 94L851.1 75Z" fill="#775975" stroke="#f5f5f5"></path><path d="M1172.4 122L1163.4 0L1128.6 0Z" fill="#ffb2a4" stroke="#f5f5f5"></path><path d="M1072.9 300L1204.4 300L1164.4 217Z" fill="#2a2d42" stroke="#f5f5f5"></path><path d="M1164.4 217L1269.2 113L1172.4 122Z" fill="#413c54" stroke="#f5f5f5"></path><path d="M1172.4 122L1269.2 113L1163.4 0Z" fill="#00101c" stroke="#f5f5f5"></path><path d="M827.1 0L735.6 34L851.1 75Z" fill="#5b4a66" stroke="#f5f5f5"></path><path d="M1353.2 191L1269.2 113L1164.4 217Z" fill="#e79d9e" stroke="#f5f5f5"></path><path d="M827.1 0L736.4 0L735.6 34Z" fill="#ffb2a4" stroke="#f5f5f5"></path><path d="M612.8 300L728.6 300L761.4 184Z" fill="#ffb2a4" stroke="#f5f5f5"></path><path d="M761.4 184L728.6 300L849.4 300Z" fill="#ffb2a4" stroke="#f5f5f5"></path><path d="M615.8 95L761.4 184L735.6 34Z" fill="#151f2f" stroke="#f5f5f5"></path><path d="M1204.4 300L1292.2 300L1164.4 217Z" fill="#151f2f" stroke="#f5f5f5"></path><path d="M1292.2 300L1353.2 191L1164.4 217Z" fill="#e79d9e" stroke="#f5f5f5"></path><path d="M1269.2 113L1340.2 0L1163.4 0Z" fill="#2a2d42" stroke="#f5f5f5"></path><path d="M600.6 0L615.8 95L735.6 34Z" fill="#ffb2a4" stroke="#f5f5f5"></path><path d="M1353.2 191L1340.2 0L1269.2 113Z" fill="#00101c" stroke="#f5f5f5"></path><path d="M615.8 95L604.6 142L761.4 184Z" fill="#946882" stroke="#f5f5f5"></path><path d="M604.6 142L612.8 300L761.4 184Z" fill="#775975" stroke="#f5f5f5"></path><path d="M615.8 95L528.8 161L604.6 142Z" fill="#ffb2a4" stroke="#f5f5f5"></path><path d="M736.4 0L600.6 0L735.6 34Z" fill="#cd8a96" stroke="#f5f5f5"></path><path d="M604.6 142L528.8 161L612.8 300Z" fill="#413c54" stroke="#f5f5f5"></path><path d="M496.8 0L528.8 161L615.8 95Z" fill="#00101c" stroke="#f5f5f5"></path><path d="M1292.2 300L1440.9 300L1353.2 191Z" fill="#00101c" stroke="#f5f5f5"></path><path d="M1353.2 191L1464.9 75L1340.2 0Z" fill="#e79d9e" stroke="#f5f5f5"></path><path d="M1497.9 228L1464.9 75L1353.2 191Z" fill="#151f2f" stroke="#f5f5f5"></path><path d="M1464.9 75L1477.9 0L1340.2 0Z" fill="#5b4a66" stroke="#f5f5f5"></path><path d="M1526.7 75L1477.9 0L1464.9 75Z" fill="#5b4a66" stroke="#f5f5f5"></path><path d="M600.6 0L496.8 0L615.8 95Z" fill="#00101c" stroke="#f5f5f5"></path><path d="M1440.9 300L1497.9 228L1353.2 191Z" fill="#cd8a96" stroke="#f5f5f5"></path><path d="M1440.9 300L1498.7 260L1497.9 228Z" fill="#e79d9e" stroke="#f5f5f5"></path><path d="M310.3 237L475.1 264L528.8 161Z" fill="#ffb2a4" stroke="#f5f5f5"></path><path d="M528.8 161L475.1 264L612.8 300Z" fill="#151f2f" stroke="#f5f5f5"></path><path d="M1605.7 0L1526.7 75L1647.5 170Z" fill="#5b4a66" stroke="#f5f5f5"></path><path d="M1497.9 228L1526.7 75L1464.9 75Z" fill="#e79d9e" stroke="#f5f5f5"></path><path d="M496.8 0L435.1 31L528.8 161Z" fill="#ffb2a4" stroke="#f5f5f5"></path><path d="M310.3 237L434.1 300L475.1 264Z" fill="#413c54" stroke="#f5f5f5"></path><path d="M475.1 264L434.1 300L612.8 300Z" fill="#413c54" stroke="#f5f5f5"></path><path d="M496.8 0L417.1 0L435.1 31Z" fill="#b1788d" stroke="#f5f5f5"></path><path d="M435.1 31L310.3 237L528.8 161Z" fill="#cd8a96" stroke="#f5f5f5"></path><path d="M417.1 0L390.3 0L435.1 31Z" fill="#151f2f" stroke="#f5f5f5"></path><path d="M1647.5 170L1526.7 75L1497.9 228Z" fill="#cd8a96" stroke="#f5f5f5"></path><path d="M1526.7 75L1605.7 0L1477.9 0Z" fill="#413c54" stroke="#f5f5f5"></path><path d="M1637.7 300L1497.9 228L1498.7 260Z" fill="#e79d9e" stroke="#f5f5f5"></path><path d="M1671.5 238L1647.5 170L1497.9 228Z" fill="#b1788d" stroke="#f5f5f5"></path><path d="M1440.9 300L1637.7 300L1498.7 260Z" fill="#cd8a96" stroke="#f5f5f5"></path><path d="M390.3 0L327.3 48L435.1 31Z" fill="#00101c" stroke="#f5f5f5"></path><path d="M327.3 48L310.3 237L435.1 31Z" fill="#413c54" stroke="#f5f5f5"></path><path d="M1637.7 300L1671.5 238L1497.9 228Z" fill="#2a2d42" stroke="#f5f5f5"></path><path d="M310.3 237L317.3 300L434.1 300Z" fill="#2a2d42" stroke="#f5f5f5"></path><path d="M1657.5 300L1671.5 238L1637.7 300Z" fill="#e79d9e" stroke="#f5f5f5"></path><path d="M1647.5 170L1692.5 0L1605.7 0Z" fill="#151f2f" stroke="#f5f5f5"></path><path d="M327.3 48L272.5 197L310.3 237Z" fill="#5b4a66" stroke="#f5f5f5"></path><path d="M310.3 237L153.5 300L317.3 300Z" fill="#5b4a66" stroke="#f5f5f5"></path><path d="M1731.2 126L1692.5 0L1647.5 170Z" fill="#775975" stroke="#f5f5f5"></path><path d="M1807.2 169L1731.2 126L1671.5 238Z" fill="#5b4a66" stroke="#f5f5f5"></path><path d="M1671.5 238L1731.2 126L1647.5 170Z" fill="#ffb2a4" stroke="#f5f5f5"></path><path d="M1731.2 126L1732.2 0L1692.5 0Z" fill="#ffb2a4" stroke="#f5f5f5"></path><path d="M390.3 0L239.5 0L327.3 48Z" fill="#151f2f" stroke="#f5f5f5"></path><path d="M327.3 48L194.5 143L272.5 197Z" fill="#00101c" stroke="#f5f5f5"></path><path d="M1657.5 300L1748.2 300L1671.5 238Z" fill="#b1788d" stroke="#f5f5f5"></path><path d="M1731.2 126L1900 88L1732.2 0Z" fill="#5b4a66" stroke="#f5f5f5"></path><path d="M239.5 0L194.5 143L327.3 48Z" fill="#5b4a66" stroke="#f5f5f5"></path><path d="M272.5 197L153.5 300L310.3 237Z" fill="#e79d9e" stroke="#f5f5f5"></path><path d="M1748.2 300L1807.2 169L1671.5 238Z" fill="#775975" stroke="#f5f5f5"></path><path d="M239.5 0L163.8 0L194.5 143Z" fill="#151f2f" stroke="#f5f5f5"></path><path d="M51.8 137L153.5 300L194.5 143Z" fill="#413c54" stroke="#f5f5f5"></path><path d="M194.5 143L153.5 300L272.5 197Z" fill="#ffb2a4" stroke="#f5f5f5"></path><path d="M1900 300L1900 209L1807.2 169Z" fill="#b1788d" stroke="#f5f5f5"></path><path d="M1807.2 169L1900 88L1731.2 126Z" fill="#775975" stroke="#f5f5f5"></path><path d="M1900 209L1900 88L1807.2 169Z" fill="#775975" stroke="#f5f5f5"></path><path d="M1900 88L1900 0L1732.2 0Z" fill="#151f2f" stroke="#f5f5f5"></path><path d="M1748.2 300L1900 300L1807.2 169Z" fill="#775975" stroke="#f5f5f5"></path><path d="M42.8 62L51.8 137L194.5 143Z" fill="#151f2f" stroke="#f5f5f5"></path><path d="M51.8 137L53.8 300L153.5 300Z" fill="#5b4a66" stroke="#f5f5f5"></path><path d="M163.8 0L42.8 62L194.5 143Z" fill="#775975" stroke="#f5f5f5"></path><path d="M51.8 137L0 227L53.8 300Z" fill="#cd8a96" stroke="#f5f5f5"></path><path d="M42.8 62L0 134L51.8 137Z" fill="#00101c" stroke="#f5f5f5"></path><path d="M0 134L0 227L51.8 137Z" fill="#00101c" stroke="#f5f5f5"></path><path d="M42.8 62L0 0L0 134Z" fill="#413c54" stroke="#f5f5f5"></path><path d="M163.8 0L0 0L42.8 62Z" fill="#00101c" stroke="#f5f5f5"></path><path d="M0 227L0 300L53.8 300Z" fill="#ffb2a4" stroke="#f5f5f5"></path></g></svg>