<svg id="visual" viewBox="0 0 1900 300" width="1900" height="300" xmlns="http://www.w3.org/2000/svg" xmlns:xlink="http://www.w3.org/1999/xlink" version="1.1"><g stroke-width="24" stroke-linejoin="bevel"><path d="M957.1 131L1000.1 0L913.9 95Z" fill="#e79d9e" stroke="#f5f5f5"></path><path d="M1000.1 0L921.9 0L913.9 95Z" fill="#151f2f" stroke="#f5f5f5"></path><path d="M909.9 250L997.1 183L957.1 131Z" fill="#946882" stroke="#f5f5f5"></path><path d="M957.1 131L1114.2 0L1000.1 0Z" fill="#00101c" stroke="#f5f5f5"></path><path d="M997.1 183L1114.2 0L957.1 131Z" fill="#00101c" stroke="#f5f5f5"></path><path d="M921.9 0L786.8 90L913.9 95Z" fill="#413c54" stroke="#f5f5f5"></path><path d="M913.9 95L909.9 250L957.1 131Z" fill="#946882" stroke="#f5f5f5"></path><path d="M786.8 90L909.9 250L913.9 95Z" fill="#cd8a96" stroke="#f5f5f5"></path><path d="M1207.2 241L1172.2 131L997.1 183Z" fill="#5b4a66" stroke="#f5f5f5"></path><path d="M997.1 183L1172.2 131L1114.2 0Z" fill="#775975" stroke="#f5f5f5"></path><path d="M921.9 0L773.8 0L786.8 90Z" fill="#ffb2a4" stroke="#f5f5f5"></path><path d="M909.9 250L982.1 300L997.1 183Z" fill="#946882" stroke="#f5f5f5"></path><path d="M794.8 300L904.9 300L909.9 250Z" fill="#ffb2a4" stroke="#f5f5f5"></path><path d="M909.9 250L904.9 300L982.1 300Z" fill="#151f2f" stroke="#f5f5f5"></path><path d="M982.1 300L1207.2 241L997.1 183Z" fill="#946882" stroke="#f5f5f5"></path><path d="M603.6 235L723.8 218L555.6 146Z" fill="#5b4a66" stroke="#f5f5f5"></path><path d="M786.8 90L723.8 218L909.9 250Z" fill="#cd8a96" stroke="#f5f5f5"></path><path d="M723.8 218L794.8 300L909.9 250Z" fill="#151f2f" stroke="#f5f5f5"></path><path d="M1172.2 131L1269.4 0L1114.2 0Z" fill="#413c54" stroke="#f5f5f5"></path><path d="M1282.4 163L1269.4 0L1172.2 131Z" fill="#b1788d" stroke="#f5f5f5"></path><path d="M1207.2 241L1282.4 163L1172.2 131Z" fill="#5b4a66" stroke="#f5f5f5"></path><path d="M1207.2 241L1284.4 189L1282.4 163Z" fill="#b1788d" stroke="#f5f5f5"></path><path d="M982.1 300L1228.2 300L1207.2 241Z" fill="#2a2d42" stroke="#f5f5f5"></path><path d="M1207.2 241L1228.2 300L1284.4 189Z" fill="#00101c" stroke="#f5f5f5"></path><path d="M603.6 235L652.6 300L723.8 218Z" fill="#413c54" stroke="#f5f5f5"></path><path d="M723.8 218L652.6 300L794.8 300Z" fill="#00101c" stroke="#f5f5f5"></path><path d="M555.6 146L723.8 218L786.8 90Z" fill="#151f2f" stroke="#f5f5f5"></path><path d="M1380.4 300L1393.5 147L1284.4 189Z" fill="#5b4a66" stroke="#f5f5f5"></path><path d="M1284.4 189L1393.5 147L1282.4 163Z" fill="#946882" stroke="#f5f5f5"></path><path d="M1282.4 163L1393.5 147L1269.4 0Z" fill="#cd8a96" stroke="#f5f5f5"></path><path d="M546.6 0L555.6 146L786.8 90Z" fill="#413c54" stroke="#f5f5f5"></path><path d="M773.8 0L546.6 0L786.8 90Z" fill="#e79d9e" stroke="#f5f5f5"></path><path d="M1228.2 300L1380.4 300L1284.4 189Z" fill="#413c54" stroke="#f5f5f5"></path><path d="M1433.5 300L1437.5 149L1393.5 147Z" fill="#ffb2a4" stroke="#f5f5f5"></path><path d="M1393.5 147L1485.5 0L1269.4 0Z" fill="#ffb2a4" stroke="#f5f5f5"></path><path d="M546.6 0L489.5 0L555.6 146Z" fill="#413c54" stroke="#f5f5f5"></path><path d="M1437.5 149L1485.5 0L1393.5 147Z" fill="#00101c" stroke="#f5f5f5"></path><path d="M1380.4 300L1433.5 300L1393.5 147Z" fill="#00101c" stroke="#f5f5f5"></path><path d="M1644.7 122L1631.7 0L1485.5 0Z" fill="#5b4a66" stroke="#f5f5f5"></path><path d="M415.5 91L442.5 162L555.6 146Z" fill="#b1788d" stroke="#f5f5f5"></path><path d="M555.6 146L442.5 162L603.6 235Z" fill="#b1788d" stroke="#f5f5f5"></path><path d="M603.6 235L376.5 300L652.6 300Z" fill="#946882" stroke="#f5f5f5"></path><path d="M489.5 0L415.5 91L555.6 146Z" fill="#946882" stroke="#f5f5f5"></path><path d="M1433.5 300L1570.7 300L1437.5 149Z" fill="#151f2f" stroke="#f5f5f5"></path><path d="M265.3 219L376.5 300L442.5 162Z" fill="#413c54" stroke="#f5f5f5"></path><path d="M442.5 162L376.5 300L603.6 235Z" fill="#775975" stroke="#f5f5f5"></path><path d="M239.3 0L320.3 111L415.5 91Z" fill="#cd8a96" stroke="#f5f5f5"></path><path d="M415.5 91L320.3 111L442.5 162Z" fill="#e79d9e" stroke="#f5f5f5"></path><path d="M1644.7 122L1485.5 0L1437.5 149Z" fill="#cd8a96" stroke="#f5f5f5"></path><path d="M1570.7 300L1611.7 244L1437.5 149Z" fill="#ffb2a4" stroke="#f5f5f5"></path><path d="M1611.7 244L1644.7 122L1437.5 149Z" fill="#b1788d" stroke="#f5f5f5"></path><path d="M265.3 219L323.3 300L376.5 300Z" fill="#ffb2a4" stroke="#f5f5f5"></path><path d="M1800.8 152L1699.8 126L1816.8 300Z" fill="#00101c" stroke="#f5f5f5"></path><path d="M1611.7 244L1699.8 126L1644.7 122Z" fill="#ffb2a4" stroke="#f5f5f5"></path><path d="M1644.7 122L1715.8 0L1631.7 0Z" fill="#5b4a66" stroke="#f5f5f5"></path><path d="M320.3 111L265.3 219L442.5 162Z" fill="#2a2d42" stroke="#f5f5f5"></path><path d="M489.5 0L239.3 0L415.5 91Z" fill="#413c54" stroke="#f5f5f5"></path><path d="M320.3 111L98.2 52L265.3 219Z" fill="#413c54" stroke="#f5f5f5"></path><path d="M1699.8 126L1715.8 0L1644.7 122Z" fill="#e79d9e" stroke="#f5f5f5"></path><path d="M126.2 253L214.2 300L265.3 219Z" fill="#946882" stroke="#f5f5f5"></path><path d="M265.3 219L214.2 300L323.3 300Z" fill="#413c54" stroke="#f5f5f5"></path><path d="M239.3 0L98.2 52L320.3 111Z" fill="#2a2d42" stroke="#f5f5f5"></path><path d="M1816.8 300L1699.8 126L1611.7 244Z" fill="#e79d9e" stroke="#f5f5f5"></path><path d="M1699.8 126L1800.8 152L1715.8 0Z" fill="#b1788d" stroke="#f5f5f5"></path><path d="M98.2 52L126.2 253L265.3 219Z" fill="#b1788d" stroke="#f5f5f5"></path><path d="M1570.7 300L1816.8 300L1611.7 244Z" fill="#151f2f" stroke="#f5f5f5"></path><path d="M156.2 0L98.2 52L239.3 0Z" fill="#151f2f" stroke="#f5f5f5"></path><path d="M1900 241L1900 65L1800.8 152Z" fill="#775975" stroke="#f5f5f5"></path><path d="M1800.8 152L1900 65L1715.8 0Z" fill="#00101c" stroke="#f5f5f5"></path><path d="M1900 65L1900 0L1715.8 0Z" fill="#00101c" stroke="#f5f5f5"></path><path d="M1816.8 300L1900 241L1800.8 152Z" fill="#00101c" stroke="#f5f5f5"></path><path d="M1816.8 300L1900 300L1900 241Z" fill="#5b4a66" stroke="#f5f5f5"></path><path d="M98.2 52L0 133L126.2 253Z" fill="#946882" stroke="#f5f5f5"></path><path d="M0 0L0 84L98.2 52Z" fill="#cd8a96" stroke="#f5f5f5"></path><path d="M156.2 0L0 0L98.2 52Z" fill="#ffb2a4" stroke="#f5f5f5"></path><path d="M0 84L0 133L98.2 52Z" fill="#cd8a96" stroke="#f5f5f5"></path><path d="M0 133L0 300L126.2 253Z" fill="#5b4a66" stroke="#f5f5f5"></path><path d="M126.2 253L0 300L214.2 300Z" fill="#e79d9e" stroke="#f5f5f5"></path></g></svg>