<svg id="visual" viewBox="0 0 1900 300" width="1900" height="300" xmlns="http://www.w3.org/2000/svg" xmlns:xlink="http://www.w3.org/1999/xlink" version="1.1"><g stroke-width="24" stroke-linejoin="bevel"><path d="M1060.6 160L1085.6 300L1221.7 105Z" fill="#e79d9e" stroke="#f5f5f5"></path><path d="M1085.6 300L1308.7 300L1221.7 105Z" fill="#151f2f" stroke="#f5f5f5"></path><path d="M1449.8 157L1277.7 0L1221.7 105Z" fill="#413c54" stroke="#f5f5f5"></path><path d="M1221.7 105L1049.6 0L1060.6 160Z" fill="#b1788d" stroke="#f5f5f5"></path><path d="M1277.7 0L1049.6 0L1221.7 105Z" fill="#413c54" stroke="#f5f5f5"></path><path d="M1308.7 300L1449.8 157L1221.7 105Z" fill="#946882" stroke="#f5f5f5"></path><path d="M1433.8 300L1449.8 157L1308.7 300Z" fill="#151f2f" stroke="#f5f5f5"></path><path d="M865.4 0L814.4 146L1060.6 160Z" fill="#413c54" stroke="#f5f5f5"></path><path d="M1060.6 160L804.4 300L1085.6 300Z" fill="#e79d9e" stroke="#f5f5f5"></path><path d="M1049.6 0L865.4 0L1060.6 160Z" fill="#775975" stroke="#f5f5f5"></path><path d="M814.4 146L804.4 300L1060.6 160Z" fill="#775975" stroke="#f5f5f5"></path><path d="M1664.9 186L1488.8 0L1449.8 157Z" fill="#b1788d" stroke="#f5f5f5"></path><path d="M1449.8 157L1488.8 0L1277.7 0Z" fill="#413c54" stroke="#f5f5f5"></path><path d="M1433.8 300L1664.9 186L1449.8 157Z" fill="#775975" stroke="#f5f5f5"></path><path d="M814.4 146L670.3 300L804.4 300Z" fill="#b1788d" stroke="#f5f5f5"></path><path d="M650.3 148L670.3 300L814.4 146Z" fill="#cd8a96" stroke="#f5f5f5"></path><path d="M670.3 0L650.3 148L814.4 146Z" fill="#ffb2a4" stroke="#f5f5f5"></path><path d="M865.4 0L670.3 0L814.4 146Z" fill="#00101c" stroke="#f5f5f5"></path><path d="M1433.8 300L1727.9 300L1664.9 186Z" fill="#413c54" stroke="#f5f5f5"></path><path d="M1900 191L1730.9 0L1664.9 186Z" fill="#cd8a96" stroke="#f5f5f5"></path><path d="M1664.9 186L1730.9 0L1488.8 0Z" fill="#413c54" stroke="#f5f5f5"></path><path d="M1727.9 300L1900 191L1664.9 186Z" fill="#e79d9e" stroke="#f5f5f5"></path><path d="M650.3 148L437.2 300L670.3 300Z" fill="#413c54" stroke="#f5f5f5"></path><path d="M380.2 192L437.2 300L650.3 148Z" fill="#cd8a96" stroke="#f5f5f5"></path><path d="M1727.9 300L1900 300L1900 191Z" fill="#775975" stroke="#f5f5f5"></path><path d="M1900 191L1900 0L1730.9 0Z" fill="#cd8a96" stroke="#f5f5f5"></path><path d="M390.2 0L380.2 192L650.3 148Z" fill="#151f2f" stroke="#f5f5f5"></path><path d="M670.3 0L390.2 0L650.3 148Z" fill="#e79d9e" stroke="#f5f5f5"></path><path d="M390.2 0L201.1 149L380.2 192Z" fill="#ffb2a4" stroke="#f5f5f5"></path><path d="M380.2 192L165.1 300L437.2 300Z" fill="#ffb2a4" stroke="#f5f5f5"></path><path d="M390.2 0L185.1 0L201.1 149Z" fill="#00101c" stroke="#f5f5f5"></path><path d="M201.1 149L165.1 300L380.2 192Z" fill="#775975" stroke="#f5f5f5"></path><path d="M0 300L165.1 300L0 116Z" fill="#00101c" stroke="#f5f5f5"></path><path d="M0 116L165.1 300L201.1 149Z" fill="#413c54" stroke="#f5f5f5"></path><path d="M185.1 0L0 116L201.1 149Z" fill="#413c54" stroke="#f5f5f5"></path><path d="M185.1 0L0 0L0 116Z" fill="#ffb2a4" stroke="#f5f5f5"></path></g></svg>