<svg id="visual" viewBox="0 0 900 100" width="900" height="100" xmlns="http://www.w3.org/2000/svg" xmlns:xlink="http://www.w3.org/1999/xlink" version="1.1"><path d="M0 14L8.3 17.7C16.7 21.3 33.3 28.7 50 26.7C66.7 24.7 83.3 13.3 100 7.7C116.7 2 133.3 2 150 8.3C166.7 14.7 183.3 27.3 200 33.7C216.7 40 233.3 40 250 39.5C266.7 39 283.3 38 300 37.5C316.7 37 333.3 37 350 34.8C366.7 32.7 383.3 28.3 400 27.8C416.7 27.3 433.3 30.7 450 28.3C466.7 26 483.3 18 500 15C516.7 12 533.3 14 550 16.7C566.7 19.3 583.3 22.7 600 24.7C616.7 26.7 633.3 27.3 650 26.5C666.7 25.7 683.3 23.3 700 24.7C716.7 26 733.3 31 750 31.8C766.7 32.7 783.3 29.3 800 28.5C816.7 27.7 833.3 29.3 850 27.5C866.7 25.7 883.3 20.3 891.7 17.7L900 15L900 0L891.7 0C883.3 0 866.7 0 850 0C833.3 0 816.7 0 800 0C783.3 0 766.7 0 750 0C733.3 0 716.7 0 700 0C683.3 0 666.7 0 650 0C633.3 0 616.7 0 600 0C583.3 0 566.7 0 550 0C533.3 0 516.7 0 500 0C483.3 0 466.7 0 450 0C433.3 0 416.7 0 400 0C383.3 0 366.7 0 350 0C333.3 0 316.7 0 300 0C283.3 0 266.7 0 250 0C233.3 0 216.7 0 200 0C183.3 0 166.7 0 150 0C133.3 0 116.7 0 100 0C83.3 0 66.7 0 50 0C33.3 0 16.7 0 8.3 0L0 0Z" fill="#000000" stroke-linecap="round" stroke-linejoin="miter"></path></svg>